<svg xmlns="http://www.w3.org/2000/svg" width="89" height="38" viewBox="0 0 89 38">
    <g fill="none" fill-rule="evenodd">
        <path fill="#0072B9" d="M2.92 15.964L0 17.654v6.756l2.92 1.687 2.924 1.69 2.922-1.69 2.922-1.687v-6.756l-2.922-1.69-2.922-1.688zM22.827 26.094l-2.926 1.692v6.76l2.926 1.692 2.924 1.69 2.926-1.69 2.926-1.691V27.785l-2.926-1.69-2.926-1.69zM25.63 0l-3.511 2.028-3.513 2.026v8.105l3.513 2.027 3.511 2.025 3.514-2.025 3.514-2.027V4.054l-3.514-2.026zM30.443 14.959l2.348 1.35 2.344 1.348V23.053l-2.344 1.35-2.348 1.348-2.346-1.349-2.346-1.35v-5.395l2.346-1.349zM15.222 26.448l1.762 1.013 1.76 1.01V32.518l-1.76 1.011-1.762 1.01-1.761-1.01-1.76-1.01V28.471l1.76-1.011zM11.7 5.496l2.337 1.349 2.34 1.35v5.399l-2.34 1.348-2.337 1.35-2.338-1.35-2.338-1.348V8.196l2.338-1.351z"/>
        <path fill="#1F1410" d="M88.773 17.716h-6.259v2.969h2.591v3.514c-.154.07-.393.118-.715.16-.324.04-.7.065-1.13.065a6.11 6.11 0 0 1-2.143-.365 4.677 4.677 0 0 1-1.68-1.071 4.697 4.697 0 0 1-1.096-1.73c-.26-.675-.388-1.445-.392-2.321.004-.912.142-1.713.424-2.393a4.625 4.625 0 0 1 1.18-1.71 5.017 5.017 0 0 1 1.774-1.019 6.945 6.945 0 0 1 2.209-.34c.61 0 1.156.035 1.625.096.466.06.889.146 1.257.253.37.11.703.233 1.007.38l.799-3.097c-.277-.123-.637-.236-1.093-.355a13.853 13.853 0 0 0-1.58-.3 16.828 16.828 0 0 0-1.99-.119c-1.385 0-2.66.196-3.822.586-1.164.394-2.178.962-3.038 1.715a7.747 7.747 0 0 0-2.007 2.758c-.479 1.09-.725 2.34-.736 3.743 0 .826.09 1.613.279 2.356.184.746.447 1.433.802 2.07.35.63.78 1.195 1.287 1.69.77.733 1.718 1.295 2.846 1.674 1.13.374 2.459.568 3.99.568a15.86 15.86 0 0 0 2.18-.16 19.142 19.142 0 0 0 3.431-.787v-8.83zm-28.973 9.6h3.788v-6.758h6.035v-3.09h-6.035v-3.845h6.462v-3.114H59.8v16.807zM40.452 10.51v9.375c.002 1.774.273 3.236.799 4.367.528 1.143 1.289 1.986 2.283 2.532.999.543 2.21.812 3.629.812 1.467 0 2.721-.279 3.77-.833 1.044-.56 1.841-1.403 2.398-2.536.551-1.13.833-2.56.84-4.288v-9.429h-3.792v9.65c-.006 1.496-.268 2.598-.799 3.318-.528.719-1.294 1.078-2.293 1.072-.968 0-1.713-.363-2.243-1.1-.527-.732-.791-1.829-.803-3.29v-9.65h-3.79z"/>
    </g>
</svg>
