<?xml version="1.0" encoding="utf-8"?>
<!-- Generator: Adobe Illustrator 16.0.0, SVG Export Plug-In . SVG Version: 6.00 Build 0)  -->
<!DOCTYPE svg PUBLIC "-//W3C//DTD SVG 1.1//EN" "http://www.w3.org/Graphics/SVG/1.1/DTD/svg11.dtd">
<svg version="1.1" id="Camada_1" xmlns="http://www.w3.org/2000/svg" xmlns:xlink="http://www.w3.org/1999/xlink" x="0px" y="0px"
	 width="510.236px" height="510.236px" viewBox="0 0 510.236 510.236" enable-background="new 0 0 510.236 510.236"
	 xml:space="preserve">
<g>
	<path fill="#48B12A" d="M76.628,240.233c0-13.632,9.624-20.449,28.871-20.449c5.783,0,10.933,0.422,15.448,1.266v-4.368
		c0-5.953-5.761-8.928-17.285-8.928c-6.784,0-13.528,0.922-20.24,2.765c-0.472,0.128-1.414-0.193-1.414-1.121
		c0-3.233,0-10.517,0-10.903c0-0.794,0.671-1.065,1.006-1.158c6.845-1.92,13.727-2.879,20.647-2.879
		c22.709,0,34.064,7.304,34.064,21.907c0,0,0,42.874,0,43.436c0,0.566-0.452,1.139-1.138,1.139c-2.137,0-6.547,0-6.701,0
		c-0.62,0-1.034-0.254-1.034-0.254l-6.828-4.432c-5.786,3.125-11.946,4.686-18.489,4.686
		C85.597,260.938,76.628,254.037,76.628,240.233z M105.5,232.447c-8.062,0-12.093,2.532-12.093,7.598
		c0,5.063,3.375,7.597,10.13,7.597c6.838,0,12.642-1.731,17.411-5.191v-8.738C116.727,232.868,111.58,232.447,105.5,232.447z"/>
	<path fill="#007B34" d="M289.241,171.536c0,0.594,0,11.7,0,12.254c0,0.653-0.461,1.17-1.139,1.17c-0.673,0-24.819,0-24.819,0
		s0,74.277,0,74.84c0,0.566-0.488,1.139-1.18,1.139s-13.765,0-14.403,0c-0.735,0-1.196-0.535-1.196-1.148c0-0.615,0-74.83,0-74.83
		s-24.192,0-24.826,0c-0.629,0-1.136-0.486-1.136-1.17c0-0.685,0-11.623,0-12.254c0-0.63,0.534-1.139,1.141-1.139
		c0.604,0,65.876,0,66.42,0C288.792,170.397,289.241,170.945,289.241,171.536z"/>
	<path fill="#007B34" d="M315.517,171.536c0,0.577,0,77.928,0,88.264c0,0.742-0.508,1.139-1.153,1.139c-0.645,0-13.812,0-14.477,0
		c-0.663,0-1.15-0.396-1.15-1.139c0-10.336,0-87.684,0-88.264c0-0.621,0.551-1.139,1.15-1.139c0.602,0,13.812,0,14.477,0
		C315.033,170.397,315.517,170.919,315.517,171.536z"/>
	<path fill="#007B34" d="M334.511,259.8c0-0.605,0-77.922,0-88.264c0-0.739,0.517-1.139,1.136-1.139c0.621,0,15.072,0,15.516,0
		c0.441,0,0.935,0.39,1.082,0.721c0.148,0.328,30.387,67.977,30.387,67.977s29.68-67.788,29.802-68.072
		c0.124-0.284,0.675-0.626,1.021-0.626s14.229,0,14.893,0c0.666,0,1.139,0.522,1.139,1.139c0,0.577,0,87.727,0,88.264
		c0,0.664-0.491,1.139-1.139,1.139s-12.686,0-13.232,0s-1.142-0.424-1.142-1.139c0-0.559,0-61.922,0-61.922
		s-24.109,61.883-24.266,62.286s-0.488,0.775-1.086,0.775c-0.468,0-12.431,0-12.755,0c-0.473,0-0.883-0.283-1.065-0.74
		c-0.18-0.459-24.777-62.321-24.777-62.321s0,61.36,0,61.922c0,0.566-0.525,1.139-1.143,1.139c-0.62,0-12.687,0-13.233,0
		C335.102,260.938,334.511,260.45,334.511,259.8z"/>
	<path fill="#007B34" d="M507.932,171.536c0,0.543,0,11.5,0,12.116c0,0.618-0.475,1.182-1.142,1.182c-0.666,0-41.66,0-41.66,0
		v22.793c0,0,38.791,0,39.482,0c0.693,0,1.166,0.573,1.166,1.158c0,0.585,0,12.125,0,12.685c0,0.562-0.521,1.162-1.166,1.162
		c-0.646,0-39.672,0-39.672,0v23.744c0,0,42.141,0,42.737,0c0.602,0,1.141,0.46,1.141,1.158c0,0.59,0,11.676,0,12.266
		c0,0.715-0.548,1.139-1.141,1.139c-0.54,0-57.473,0-58.059,0c-0.587,0-1.141-0.396-1.141-1.139c0-10.335,0-87.684,0-88.264
		c0-0.745,0.584-1.139,1.139-1.139c0.556,0,56.649,0,57.173,0C507.535,170.397,507.932,170.993,507.932,171.536z"/>
	<path fill="#48B12A" d="M64.409,246.376c-0.583,0-32.762,0-33.287,0c-0.622,0-1.129-0.469-1.129-1.157s0.012-73.473,0.012-73.473
		c0-0.745-0.602-1.349-1.346-1.349H14.567c-0.745,0-1.35,0.604-1.35,1.349l-0.001,74.582h8.32c0.745,0,1.347,0.604,1.347,1.349
		v13.262c14.709,0,41.072,0,41.527,0c0.632,0,1.136-0.465,1.136-1.139s0-11.647,0-12.281
		C65.546,246.786,65.063,246.376,64.409,246.376z"/>
	<path fill="#48B12A" d="M18.275,251.161c0,0.744-0.602,1.348-1.347,1.348H2.766c-0.745,0-1.349-0.604-1.349-1.348V237
		c0-0.745,0.604-1.349,1.349-1.349h14.163c0.745,0,1.347,0.604,1.347,1.349V251.161z"/>
	<path fill="#48B12A" d="M185.845,194.457c-5.317,0-10.489,1.057-15.511,3.167l0.011-25.878c0-0.745-0.602-1.349-1.348-1.349h-6.899
		v19.641c0,1.008-0.813,1.825-1.823,1.825h-6.719c0,25.172,0,65.056,0,65.388c0,0.686,0.655,1.078,0.984,1.133
		c10.139,1.701,19.625,2.555,28.456,2.555c6.481,0,11.999-0.99,16.616-2.9v-16.739c0-1.009,0.816-1.826,1.823-1.826h13.751
		c1.016-3.858,1.558-8.204,1.558-13.105C216.745,205.095,206.447,194.457,185.845,194.457z M183.693,247.389
		c-5.064,0-9.517-0.61-13.359-1.837v-33.745c4.644-2.279,9.793-3.419,15.449-3.419c9.582,0,14.372,5.847,14.372,17.537
		C200.155,240.233,194.667,247.389,183.693,247.389z"/>
	<path fill="#48B12A" d="M157.493,185.907c0,0.743-0.604,1.347-1.35,1.347h-14.161c-0.745,0-1.348-0.604-1.348-1.347v-14.162
		c0-0.745,0.604-1.349,1.348-1.349h14.161c0.746,0,1.35,0.604,1.35,1.349V185.907z"/>
	<path fill="#48B12A" d="M221.078,259.587c0,0.748-0.604,1.352-1.348,1.352h-14.161c-0.745,0-1.349-0.604-1.349-1.352V245.43
		c0-0.746,0.604-1.349,1.349-1.349h14.161c0.744,0,1.348,0.603,1.348,1.349V259.587z"/>
</g>
</svg>
